<?xml version="1.0" encoding="UTF-8"?>
<svg version="1.1" xmlns="http://www.w3.org/2000/svg" width="3024" height="1728">
<path d="M0 0 C14.47167763 11.24721895 22.4484278 25.95997389 25 44 C25.25788658 47.70517817 25.2841871 51.39179011 25.2746582 55.10498047 C25.27976913 56.15550095 25.28488007 57.20602142 25.29014587 58.28837585 C25.30394407 61.73137253 25.30309131 65.1741666 25.30078125 68.6171875 C25.30467579 71.03980583 25.309012 73.46242349 25.31376648 75.88504028 C25.32120947 80.95691135 25.320953 86.0287128 25.31567383 91.10058594 C25.30990626 97.54295867 25.32675405 103.98504135 25.3500185 110.42736626 C25.36488841 115.43282691 25.36560927 120.43822004 25.36250877 125.44369888 C25.36301616 127.81551814 25.36814206 130.18734178 25.37832069 132.55913925 C25.44023375 149.01336734 24.38199299 164.87108488 21 181 C22.2375 180.690625 23.475 180.38125 24.75 180.0625 C38.17845954 177.14639161 52.13197784 177.81987247 65.796875 177.796875 C66.93535133 177.79404762 68.07382767 177.79122025 69.24680328 177.78830719 C75.26935553 177.77338457 81.29188424 177.76411081 87.31445312 177.75976562 C93.49159622 177.75428458 99.66851853 177.73024393 105.8455925 177.70179367 C110.63637907 177.68305522 115.42711355 177.6779558 120.21793365 177.67642975 C122.49341288 177.67342905 124.76889176 177.66548948 127.04433441 177.65224457 C150.70540877 177.52431898 171.22992952 179.42706184 189 197 C202.08227243 211.92516645 206.06786103 228.27678898 205.1953125 247.56738281 C203.996012 262.5046705 196.32400599 274.62259398 186 285 C185.39671875 285.63808594 184.7934375 286.27617188 184.171875 286.93359375 C173.62120243 297.23196763 158.74211806 301.30179458 144.39648438 301.28710938 C143.36453445 301.29394241 142.33258453 301.30077545 141.2693634 301.30781555 C139.04050352 301.32134952 136.81161306 301.33043737 134.5827179 301.33552551 C131.05125249 301.34385018 127.52004127 301.36438776 123.98864746 301.38806152 C115.220534 301.44432991 106.45235867 301.47964209 97.68414307 301.51568604 C90.26634898 301.54698173 82.8486786 301.58621381 75.4309845 301.63594055 C71.95897737 301.65594619 68.48706726 301.66431518 65.01501465 301.67224121 C62.87784475 301.68521843 60.74067807 301.69873944 58.60351562 301.71289062 C57.64431717 301.71190872 56.68511871 301.71092682 55.69685364 301.70991516 C46.75215145 301.79216127 39.11893675 303.27321088 32 309 C26.06981169 316.17864901 25.70498337 323.51824525 25.72875977 332.42651367 C25.72353302 333.4518924 25.71830627 334.47727112 25.71292114 335.53372192 C25.70270984 337.75222946 25.69690576 339.97076075 25.69503975 342.189291 C25.69136321 345.70917701 25.67459951 349.22878451 25.65428162 352.74861145 C25.59900301 362.7536601 25.56825056 372.75874978 25.54370117 382.76391602 C25.52775936 388.89289999 25.49746918 395.02168669 25.45893669 401.15056801 C25.4473431 403.47676805 25.44135684 405.80300348 25.44125557 408.12923241 C25.44001207 429.0966662 23.68043384 446.98996983 8.23046875 462.828125 C7.12638672 463.90320313 7.12638672 463.90320313 6 465 C5.39800781 465.63421875 4.79601563 466.2684375 4.17578125 466.921875 C-7.54335414 478.41222033 -23.52263857 481.4130627 -39.27441406 481.36572266 C-47.19534856 481.22819767 -53.71025679 480.27987036 -61 477 C-61.92425781 476.59910156 -62.84851562 476.19820312 -63.80078125 475.78515625 C-74.96680601 470.33638886 -84.99613465 460.90022155 -91 450 C-91.67578125 447.71484375 -91.67578125 447.71484375 -92 446 C-92.66 446 -93.32 446 -94 446 C-94.226875 446.99 -94.45375 447.98 -94.6875 449 C-95.95211844 453.51385707 -98.38305754 457.15449295 -101 461 C-100.23558594 461.11214844 -99.47117187 461.22429687 -98.68359375 461.33984375 C-84.06835709 464.0307357 -73.03432567 472.37393237 -62 482 C-60.94232422 482.85851562 -60.94232422 482.85851562 -59.86328125 483.734375 C-37.23729972 502.40414365 -24.10597327 533.52007835 -20 562 C-19.926503 580.0204391 -30.23149627 594.76385514 -42.203125 607.30859375 C-54.49205359 619.0332348 -70.15929909 627.0056808 -85 635 C-86.34122466 635.72641697 -87.68237386 636.45297329 -89.0234375 637.1796875 C-92.01090073 638.79534034 -95.00349786 640.40115963 -98 642 C-96.98421875 642.49628906 -95.9684375 642.99257813 -94.921875 643.50390625 C-64.89994272 658.26765018 -40.59250454 677.7701135 -29 710 C-18.41264169 741.82845334 -22.20017529 776.20169522 -37 806 C-38.29807525 808.35638229 -39.63978496 810.67840759 -41 813 C-40.30777344 813.03996094 -39.61554688 813.07992187 -38.90234375 813.12109375 C-19.267113 815.21655316 -0.24330797 832.68872612 11.70288086 847.47631836 C24.87370545 864.2168752 33.13992936 883.36301663 38 904 C38.28230469 905.16660156 38.56460938 906.33320312 38.85546875 907.53515625 C41.4136455 920.29503181 37.78996837 932.11238187 31 943 C28.20693843 946.87136217 25.1884119 950.45012686 22 954 C21.08927734 955.08667969 21.08927734 955.08667969 20.16015625 956.1953125 C5.35070925 972.60987338 -17.65070061 982.79724265 -37 993 C-38.54288696 993.83120361 -38.54288696 993.83120361 -40.11694336 994.67919922 C-42.79824647 995.90757163 -44.42167896 996.39253373 -47.3203125 996.43359375 C-48.48590698 996.45015015 -48.48590698 996.45015015 -49.67504883 996.46704102 C-50.48353271 996.45729248 -51.2920166 996.44754395 -52.125 996.4375 C-52.96377686 996.43355225 -53.80255371 996.42960449 -54.66674805 996.42553711 C-60.69708333 996.28702196 -65.84448355 995.28565597 -71.45703125 992.97265625 C-78.56685515 990.25323052 -82.38596499 991.58737214 -89.0625 994.5625 C-109.68191521 1003.26215138 -132.00770259 1009.06611911 -154.48828125 1009.203125 C-155.26517303 1009.21013931 -156.04206482 1009.21715363 -156.84249878 1009.22438049 C-159.332559 1009.24176732 -161.82238133 1009.24823173 -164.3125 1009.25 C-165.163815 1009.25067474 -166.01513 1009.25134949 -166.89224243 1009.25204468 C-179.49474315 1009.23616447 -191.66948176 1008.82858581 -204 1006 C-205.14976318 1005.75056641 -205.14976318 1005.75056641 -206.32275391 1005.49609375 C-218.47947099 1002.80732569 -229.81322449 998.56052113 -241.23852539 993.6550293 C-242.99921009 992.88381824 -242.99921009 992.88381824 -245 993 C-244.2575 994.3921875 -244.2575 994.3921875 -243.5 995.8125 C-239.60200821 1005.06647539 -242.66024623 1015.7734975 -244.6328125 1025.16796875 C-244.91090737 1026.53269854 -245.1879721 1027.89763859 -245.46408081 1029.26277161 C-246.19232257 1032.85099495 -246.93283049 1036.43656848 -247.67657471 1040.02160645 C-248.4076849 1043.55286767 -249.12984189 1047.08595028 -249.8515625 1050.61914062 C-249.99346386 1051.31363878 -250.13536522 1052.00813694 -250.28156662 1052.7236805 C-251.71923353 1059.76482806 -253.15013517 1066.80732058 -254.56776428 1073.85253143 C-254.85880941 1075.29852546 -255.15039498 1076.74441079 -255.44248962 1078.19019318 C-256.31957699 1082.53613418 -257.18248398 1086.88449518 -258.02660751 1091.23696327 C-258.4150815 1093.22599679 -258.81548012 1095.21268997 -259.21633911 1097.19926453 C-260.75497079 1105.22832136 -261.31728367 1112.82943658 -261 1121 C-249.50512678 1118.34733695 -241.38431831 1106.91805591 -234.421875 1098.01171875 C-232.59195703 1095.73612721 -230.7391909 1093.60079142 -228.765625 1091.45703125 C-220.93984036 1082.75281952 -217.28929263 1075.21986036 -214.3828125 1063.94140625 C-213.08835201 1059.01917685 -211.27890782 1054.51290084 -209.0625 1049.9375 C-208.76239014 1049.27685547 -208.46228027 1048.61621094 -208.15307617 1047.93554688 C-206.45791814 1044.57280881 -205.02924718 1043.01731461 -201.7734375 1041.08984375 C-197.54128177 1039.86751306 -193.93705332 1039.54274763 -189.5625 1039.625 C-188.81621338 1039.63080078 -188.06992676 1039.63660156 -187.30102539 1039.64257812 C-181.97847332 1039.76840402 -177.78927267 1040.55441395 -173 1043 C-172.40983313 1048.81383262 -174.37327595 1052.46255697 -177.015625 1057.44140625 C-177.42786316 1058.24553452 -177.84010132 1059.04966278 -178.26483154 1059.87815857 C-179.58182445 1062.44567964 -180.91408861 1065.00477726 -182.25 1067.5625 C-192.05125427 1084.87862473 -192.05125427 1084.87862473 -196 1104 C-188.32511869 1099.4783645 -182.11478309 1093.6964164 -175.69384766 1087.60546875 C-143.01903336 1056.63550928 -143.01903336 1056.63550928 -127.41015625 1056.7734375 C-123.20041257 1057.16916705 -120.89454537 1059.10545463 -118 1062 C-117.4089315 1070.20928476 -119.29496523 1077.5430732 -121.22265625 1085.47265625 C-122.8932229 1092.64177369 -124.20766717 1099.30990588 -121.875 1106.4375 C-120.15644887 1109.12818295 -120.15644887 1109.12818295 -117.4375 1110.5625 C-107.0925534 1111.87912957 -98.25679782 1104.94654491 -90.3984375 1099.046875 C-85.33747024 1095.06704316 -80.52976189 1090.84906461 -75.8125 1086.46875 C-74 1085 -74 1085 -72 1085 C-72.33 1084.34 -72.66 1083.68 -73 1083 C-74.45659346 1069.89065889 -69.79178811 1058.33292136 -62 1048 C-56.04675103 1040.63483004 -49.66569008 1033.04466521 -40 1031 C-34.58516958 1030.47310782 -30.38442106 1030.31993351 -25.4375 1032.75 C-21.68147897 1036.21709633 -21.10249879 1037.72901502 -20.6875 1042.875 C-20.8089295 1047.53268885 -22.33465081 1050.98873259 -25.31640625 1054.58984375 C-27.38422293 1056.32182014 -29.00232693 1056.66718376 -31.625 1057.25 C-40.18205912 1059.66096702 -45.90303772 1064.8313161 -50.22265625 1072.49609375 C-50.47917969 1072.99238281 -50.73570313 1073.48867187 -51 1074 C-50.38253906 1073.95359375 -49.76507812 1073.9071875 -49.12890625 1073.859375 C-41.76571525 1073.54557082 -35.74346024 1074.61043832 -30.140625 1079.68359375 C-27.38117025 1082.73870437 -25.91912588 1084.97830441 -25 1089 C-23.77482666 1088.54560547 -23.77482666 1088.54560547 -22.52490234 1088.08203125 C-19.4749499 1086.95610815 -16.4219643 1085.83895695 -13.36669922 1084.72753906 C-12.04837276 1084.24597338 -10.73128782 1083.76099398 -9.41552734 1083.27246094 C-7.51721158 1082.56831656 -5.61467748 1081.87682345 -3.7109375 1081.1875 C-2.56931152 1080.76855469 -1.42768555 1080.34960938 -0.25146484 1079.91796875 C3.59945578 1078.83075884 7.22441066 1078.05301902 10.875 1080 C12.65799444 1083.1697679 12.80913036 1086.52137656 12 1090 C9.23574793 1094.05254495 6.80824617 1095.91868893 2.31640625 1097.82421875 C0.67768555 1098.53094727 0.67768555 1098.53094727 -0.99414062 1099.25195312 C-2.13044922 1099.72568359 -3.26675781 1100.19941406 -4.4375 1100.6875 C-5.56994141 1101.17283203 -6.70238281 1101.65816406 -7.86914062 1102.15820312 C-16.14111944 1105.69219525 -16.14111944 1105.69219525 -19.80737305 1107.00610352 C-22.234357 1107.79738811 -22.234357 1107.79738811 -22.8984375 1110.328125 C-23.13433594 1111.77445313 -23.13433594 1111.77445313 -23.375 1113.25 C-26.59516036 1128.17007632 -34.87945868 1139.97596181 -47.17578125 1148.84375 C-51.68038885 1151.69891884 -55.60128868 1153.02370774 -61 1152 C-65.47416145 1148.7460644 -68.45144443 1144.29158828 -70 1139 C-71.31037634 1127.89489144 -69.30332415 1119.40216237 -62.9375 1110.3125 C-58.7723257 1105.25542542 -53.65850351 1102.180442 -48 1099 C-47.10667969 1098.49082031 -46.21335937 1097.98164062 -45.29296875 1097.45703125 C-43.2057973 1096.2836136 -41.11047804 1095.13079934 -39 1094 C-43.05414697 1092.00273642 -45.58639136 1091.91681878 -50 1092.75 C-51.010625 1092.93046875 -52.02125 1093.1109375 -53.0625 1093.296875 C-58.45582215 1094.58782977 -61.11354243 1095.66110297 -64.25 1100.3125 C-75.6186446 1115.16265769 -96.94196273 1129.01067324 -115.16796875 1132.62890625 C-121.57642115 1133.40051966 -127.27496411 1133.2093117 -133 1130 C-138.83402574 1124.67328085 -140.96446674 1117.69515216 -141.51171875 1109.96484375 C-141.58342298 1108.28957227 -141.64198676 1106.61368751 -141.6875 1104.9375 C-141.73874023 1103.6390918 -141.73874023 1103.6390918 -141.79101562 1102.31445312 C-141.87240114 1100.21005613 -141.93789769 1098.1050543 -142 1096 C-147.54289108 1100.95481911 -153.04325163 1105.95073608 -158.5 1111 C-159.61063563 1112.02348248 -160.72131232 1113.04692041 -161.83203125 1114.0703125 C-163.80084168 1115.88576296 -165.75399663 1117.71362344 -167.69921875 1119.5546875 C-177.34216526 1128.54669728 -186.53552806 1134.59280796 -200.02734375 1134.30859375 C-205.15195784 1133.77660359 -208.85946887 1132.16294507 -212.4921875 1128.4921875 C-217.38524927 1122.26728643 -219.17715865 1114.73470869 -220 1107 C-220.66 1107 -221.32 1107 -222 1107 C-223.8761108 1108.92128201 -225.66184534 1110.86420916 -227.4375 1112.875 C-248.52797027 1136.16624269 -248.52797027 1136.16624269 -260.70703125 1137.23828125 C-265.36953367 1137.34971213 -269.07186083 1137.37125567 -273.4375 1135.625 C-283.59446588 1125.22030324 -283.4367675 1110.58273397 -283.35377502 1096.95132446 C-283.19865401 1087.7925587 -282.51100904 1078.81315659 -281.37890625 1069.71484375 C-281.29332899 1069.01792797 -281.20775173 1068.32101219 -281.11958122 1067.60297775 C-279.19862261 1052.10719865 -276.45346072 1036.78921645 -273.41870117 1021.47705078 C-272.68547485 1017.77308736 -271.98372022 1014.06382234 -271.28837681 1010.35258675 C-270.73927114 1007.44667317 -270.17097534 1004.54476635 -269.59699821 1001.64367294 C-269.32911339 1000.2742627 -269.06795634 998.90351717 -268.81393623 997.53146744 C-268.46197613 995.64226934 -268.08043079 993.75865499 -267.69750977 991.87548828 C-267.48973404 990.80920197 -267.28195831 989.74291565 -267.06788635 988.64431763 C-265.72255038 985.31297473 -264.18743561 984.50827567 -261 983 C-262.03898437 982.23816406 -263.07796875 981.47632813 -264.1484375 980.69140625 C-272.11948056 974.80792613 -279.84105471 968.86981179 -287 962 C-287.95261719 961.11054687 -288.90523437 960.22109375 -289.88671875 959.3046875 C-299.96637682 949.71846196 -308.15545288 938.78438288 -314.9765625 926.66015625 C-315.31429687 926.11230469 -315.65203125 925.56445312 -316 925 C-316.33 925 -316.66 925 -317 925 C-317.21765015 926.16849487 -317.21765015 926.16849487 -317.43969727 927.3605957 C-326.70145664 976.35375133 -326.70145664 976.35375133 -340.69189453 986.18945312 C-365.35077921 1001.42243831 -396.51235101 1002.18745586 -424.5546875 1002.18530273 C-427.72930387 1002.18748577 -430.90356992 1002.20568981 -434.078125 1002.22460938 C-458.13901176 1002.29199531 -481.62319518 1001.35637315 -500.40625 984.61328125 C-502 983 -502 983 -504 980 C-507.88022909 981.3819994 -511.28077329 983.26107886 -514.82226562 985.32543945 C-530.55095412 994.44965576 -547.27140276 1000.96205863 -565 1005 C-566.06226807 1005.24556641 -566.06226807 1005.24556641 -567.14599609 1005.49609375 C-602.74999857 1013.33431854 -642.4318393 1007.94015909 -673.6328125 988.83984375 C-706.48992354 967.02747245 -723.52901338 932.24004755 -731.6875 894.625 C-736.14427547 872.52938757 -737.26450488 850.78467925 -737.25 828.3125 C-737.24940582 827.27003113 -737.24881165 826.22756226 -737.24819946 825.15350342 C-737.24172015 822.18163803 -737.2253031 819.2100677 -737.203125 816.23828125 C-737.1987291 815.33444199 -737.19433319 814.43060272 -737.18980408 813.49937439 C-737.11826104 807.23652208 -737.11826104 807.23652208 -736 805 C-736.96421875 804.91363281 -737.9284375 804.82726563 -738.921875 804.73828125 C-740.18515625 804.59777344 -741.4484375 804.45726562 -742.75 804.3125 C-744.00296875 804.18488281 -745.2559375 804.05726563 -746.546875 803.92578125 C-750.68696074 802.81582614 -751.53653164 801.37193131 -754 798 C-754.1451001 798.7528125 -754.2902002 799.505625 -754.43969727 800.28125 C-760.5130376 831.47366097 -768.96742245 860.83926104 -784 889 C-784.50950195 889.96897217 -784.50950195 889.96897217 -785.02929688 890.95751953 C-791.31969323 902.85597409 -798.54098016 914.4950287 -807.33984375 924.71875 C-809.16133992 927.22170003 -809.45569092 928.27855886 -809.25 931.3125 C-809.1675 932.529375 -809.085 933.74625 -809 935 C-808.05640625 934.96519531 -807.1128125 934.93039062 -806.140625 934.89453125 C-790.60968714 934.56707172 -777.86440403 937.66041051 -766.2578125 948.5390625 C-748.72185624 967.65264804 -743.72657216 994.99928226 -743.5625 1020.0625 C-743.55226807 1021.26310059 -743.54203613 1022.46370117 -743.53149414 1023.70068359 C-743.65047423 1035.70352839 -745.36815474 1047.27495652 -753.8125 1056.25 C-781.71886784 1082.99173612 -822.96809039 1094.31838052 -860 1101 C-860.7110791 1101.13277344 -861.4221582 1101.26554687 -862.15478516 1101.40234375 C-887.42989672 1105.96172542 -917.88689089 1105.66476361 -939.75 1090.75 C-958.0959707 1077.593008 -970.74268327 1057.15948872 -974.5703125 1034.87890625 C-975.61912744 1025.41096776 -975.98499036 1016.13335695 -973 1007 C-973.99 1007.33 -974.98 1007.66 -976 1008 C-977.40757222 1008.09574288 -978.81917416 1008.13806636 -980.22998047 1008.14526367 C-981.50940018 1008.15483345 -981.50940018 1008.15483345 -982.81466675 1008.16459656 C-983.7394986 1008.16570938 -984.66433044 1008.1668222 -985.6171875 1008.16796875 C-986.58415558 1008.17129715 -987.55112366 1008.17462555 -988.5473938 1008.17805481 C-990.60694911 1008.18312649 -992.66651267 1008.18546306 -994.72607422 1008.18530273 C-997.80060556 1008.18744809 -1000.87475296 1008.205484 -1003.94921875 1008.22460938 C-1021.08653739 1008.27426897 -1038.02908682 1007.14285756 -1054.9375 1004.25 C-1055.92854736 1004.08081055 -1056.91959473 1003.91162109 -1057.94067383 1003.73730469 C-1100.97225396 996.04321033 -1143.98244693 976.55105809 -1172 942 C-1172.91127409 940.91260599 -1173.82275183 939.82538263 -1174.734375 938.73828125 C-1182.00786353 929.96389552 -1188.27419663 920.8484806 -1194 911 C-1194.35545898 910.39752441 -1194.71091797 909.79504883 -1195.07714844 909.17431641 C-1219.85692722 866.7694837 -1224.63274901 812.72857429 -1216 765 C-1215.82839355 764.02111816 -1215.65678711 763.04223633 -1215.47998047 762.03369141 C-1212.83454066 747.28873334 -1208.95837901 733.12748615 -1204 719 C-1203.70254883 718.14374023 -1203.40509766 717.28748047 -1203.09863281 716.40527344 C-1189.34774602 677.29329164 -1168.17515719 639.79853366 -1140.04296875 609.2265625 C-1138.17040692 607.18572074 -1136.36170466 605.10536303 -1134.5625 603 C-1127.07922748 594.45014611 -1118.87708234 587.06262049 -1110 580 C-1108.87709764 579.06597215 -1107.75608654 578.12966713 -1106.63671875 577.19140625 C-1097.54515888 569.64257393 -1087.94211513 563.26908215 -1077.84667969 557.13818359 C-1076.20823497 556.12834366 -1074.60140564 555.06760376 -1073 554 C-1073.81637939 553.99413376 -1074.63275879 553.98826752 -1075.47387695 553.98222351 C-1083.23921224 553.92386212 -1091.00424238 553.85154544 -1098.76930237 553.76428509 C-1102.75959176 553.7199165 -1106.74978686 553.68059106 -1110.74023438 553.65356445 C-1114.6048863 553.62719134 -1118.46916853 553.58656191 -1122.33358765 553.53681374 C-1123.79400974 553.52037107 -1125.25449542 553.50871844 -1126.71499634 553.50238609 C-1142.58920822 553.42672733 -1163.85578478 552.48987867 -1176 541 C-1179.53388144 534.99915614 -1178.99681119 527.7368999 -1179 521 C-1179.07315641 518.67436094 -1179.15016204 516.34884063 -1179.23046875 514.0234375 C-1180.87156208 448.99457321 -1150.02985387 394.75124285 -1106.48291016 348.55322266 C-1099.29742183 341.02703288 -1091.96244535 333.70596018 -1084 327 C-1082.95224514 326.10128517 -1081.90545989 325.20143934 -1080.859375 324.30078125 C-1077.84506526 321.70633538 -1074.82374035 319.12024282 -1071.79931641 316.53759766 C-1070.6391774 315.54620614 -1069.47992905 314.55377096 -1068.32177734 313.56005859 C-1061.80906543 307.97241439 -1055.21028653 302.53254579 -1048.43701172 297.26318359 C-1044.62739694 294.29526442 -1040.86872121 291.27321617 -1037.13476562 288.21069336 C-1027.13484822 280.00983786 -1016.83220799 272.27194914 -1006.40234375 264.62890625 C-996.96078256 257.7067128 -987.63658633 250.66572637 -978.41796875 243.44921875 C-973.39961617 239.52214992 -968.3383762 235.65229224 -963.27099609 231.78881836 C-956.83197257 226.87871413 -950.41864286 221.93741758 -944 217 C-962.15 217 -980.3 217 -999 217 C-999.99 219.97 -1000.98 222.94 -1002 226 C-1003.97265625 229.43359375 -1003.97265625 229.43359375 -1006.0625 232.4375 C-1006.75472656 233.44683594 -1007.44695312 234.45617187 -1008.16015625 235.49609375 C-1011.25176938 239.70357574 -1012.8847461 240.36014659 -1017.984375 241.21875 C-1019.83591187 241.53259644 -1019.83591187 241.53259644 -1021.72485352 241.8527832 C-1023.06639769 242.06958491 -1024.40811792 242.28529967 -1025.75 242.5 C-1026.42682831 242.61016449 -1027.10365662 242.72032898 -1027.80099487 242.83383179 C-1061.64688393 248.31990858 -1093.64643607 248.49246909 -1127 240 C-1127.83539307 239.80994385 -1128.67078613 239.6198877 -1129.53149414 239.42407227 C-1133.5866479 238.34504874 -1136.18394923 237.4438785 -1138.41796875 233.76953125 C-1139.04189346 232.46629601 -1139.63046584 231.14569806 -1140.1875 229.8125 C-1140.51008789 229.10125977 -1140.83267578 228.39001953 -1141.16503906 227.65722656 C-1142.14750262 225.45227126 -1143.07728336 223.23051966 -1144 221 C-1144.28504395 220.34241699 -1144.57008789 219.68483398 -1144.86376953 219.00732422 C-1148.20888504 211.25731325 -1150.55248354 203.45521348 -1152.25 195.1875 C-1152.40114258 194.45499023 -1152.55228516 193.72248047 -1152.70800781 192.96777344 C-1155.60665609 177.55848065 -1156.35151695 162.03046256 -1156.31567383 146.38427734 C-1156.31250209 143.50189713 -1156.33613957 140.62053679 -1156.36132812 137.73828125 C-1156.41407774 122.50411233 -1155.44183481 107.02993642 -1150.25 92.5625 C-1149.99468506 91.82717041 -1149.73937012 91.09184082 -1149.47631836 90.33422852 C-1147.08446519 83.72791705 -1143.9074574 77.83942965 -1140 72 C-1139.51402344 71.14535156 -1139.02804687 70.29070312 -1138.52734375 69.41015625 C-1134.82628162 63.56986128 -1130.85203705 61.64508555 -1124.1496582 60.11010742 C-1122.10472945 59.6998419 -1120.05786387 59.33913832 -1118 59 C-1116.73285156 58.78859375 -1115.46570312 58.5771875 -1114.16015625 58.359375 C-1079.55509907 53.30669146 -1019.89345665 47.35898408 -990 69 C-989.56420183 69.51666135 -989.12840366 70.0333227 -988.67939949 70.56564045 C-986.42294822 72.49285458 -985.05058688 72.38902054 -982.10617065 72.41459656 C-980.59232536 72.43812447 -980.59232536 72.43812447 -979.04789734 72.46212769 C-977.38812614 72.46480148 -977.38812614 72.46480148 -975.69482422 72.4675293 C-974.52866074 72.48081772 -973.36249725 72.49410614 -972.16099548 72.50779724 C-968.29215768 72.5465985 -964.42369573 72.56210518 -960.5546875 72.57421875 C-959.22038686 72.58111433 -957.88608829 72.58842302 -956.55179214 72.59613991 C-949.55827125 72.63589394 -942.56491505 72.65789901 -935.57128906 72.66577148 C-929.06629072 72.67362786 -922.56247645 72.72278293 -916.05785549 72.79083699 C-910.46445827 72.8472997 -904.87145276 72.87268911 -899.27777302 72.87471896 C-895.94059121 72.87655421 -892.60564374 72.89485935 -889.26858139 72.93753624 C-885.53851781 72.98158122 -881.81174704 72.97479032 -878.08154297 72.95581055 C-876.98717422 72.97985962 -875.89280548 73.00390869 -874.76527405 73.02868652 C-867.46519458 72.91960821 -863.91746168 71.13190898 -858.8243885 65.88920307 C-857.92131619 64.95404755 -857.92131619 64.95404755 -857 64 C-838.05640486 52.32455973 -809.86889115 54.81309332 -788.5637207 54.81469727 C-785.33466307 54.81251498 -782.1059506 54.79429375 -778.87695312 54.77539062 C-753.16751213 54.70572033 -733.04862344 54.81546563 -713 72 C-710.14151422 74.85848578 -710.71214898 77.06442207 -710.67041016 80.97973633 C-710.6760498 81.95579834 -710.68168945 82.93186035 -710.6875 83.9375 C-710.69313965 84.95803467 -710.6987793 85.97856934 -710.70458984 87.0300293 C-711.77403031 157.02543698 -745.36019997 222.06213306 -792.046875 272.86328125 C-793.78896113 274.76912347 -795.45954813 276.71503302 -797.125 278.6875 C-805.32684614 288.09945459 -814.42686757 296.99306019 -824 305 C-825.59414746 306.36094954 -827.18471992 307.72601298 -828.77514648 309.09130859 C-829.9741645 310.12016137 -831.17421073 311.14781701 -832.37524414 312.17431641 C-835.51417985 314.85819562 -838.6408691 317.55450001 -841.74609375 320.27734375 C-848.2566169 325.98062308 -854.82758491 331.54217251 -861.67114258 336.84277344 C-865.40006949 339.73189879 -869.06780595 342.68276032 -872.70800781 345.68286133 C-879.83110908 351.54703263 -887.12061081 357.11651117 -894.57421875 362.5534668 C-900.66994664 367.00317638 -906.69272961 371.54028252 -912.6875 376.125 C-921.41979667 382.80221113 -930.19248038 389.42238987 -939 396 C-921.86490589 395.63064761 -905.01375461 394.43273444 -888.00390625 392.34765625 C-883.34393712 391.80833603 -878.67417711 391.39454325 -874 391 C-873.908396 390.34539795 -873.81679199 389.6907959 -873.72241211 389.01635742 C-871.89050677 376.73628361 -865.02591967 367.51307544 -856.0625 359.3125 C-839.02461177 348.16656871 -813.66592651 348.47808456 -794.15795898 348.60888672 C-791.3020908 348.62505895 -788.4476246 348.60886472 -785.59179688 348.58984375 C-764.73078159 348.56556841 -742.76180967 349.84108865 -726.94921875 364.9609375 C-715.86729572 376.5228685 -712.75924353 390.90661708 -709 406 C-708.12601563 404.25589844 -708.12601563 404.25589844 -707.234375 402.4765625 C-696.59896263 381.57779006 -683.52708961 362.76642917 -667.484375 345.671875 C-665.42031633 343.45203832 -663.44870579 341.19488784 -661.5 338.875 C-635.77316052 309.46427036 -594.18188044 286.83270484 -555 284 C-519.90278834 282.73702745 -519.90278834 282.73702745 -505 287 C-504.18176758 287.23106445 -503.36353516 287.46212891 -502.52050781 287.70019531 C-475.06673619 295.68619913 -447.95524606 311.78475956 -433 337 C-432.46681152 337.8964624 -432.46681152 337.8964624 -431.92285156 338.81103516 C-425.88069028 349.13031732 -421.69882647 359.35495275 -419 371 C-418.75507812 372.01578125 -418.51015625 373.0315625 -418.2578125 374.078125 C-412.22459904 404.98801312 -419.73147522 435.1952565 -435 462 C-434.35675781 461.99097656 -433.71351563 461.98195313 -433.05078125 461.97265625 C-419.48811124 462.41765113 -409.24057856 470.93261292 -399 479 C-397.66845683 480.00238245 -396.33543532 481.00280881 -395 482 C-394.90501221 481.29206299 -394.81002441 480.58412598 -394.7121582 479.85473633 C-390.67194811 450.16818374 -384.39811553 422.50823715 -370 396 C-369.64824707 395.33806641 -369.29649414 394.67613281 -368.93408203 393.99414062 C-361.64176538 380.29441766 -352.93474266 367.92881287 -343 356 C-342.56461914 355.47438477 -342.12923828 354.94876953 -341.68066406 354.40722656 C-331.41984266 342.06184569 -320.66200236 330.91475289 -308 321 C-307.06285156 320.22269531 -306.12570312 319.44539063 -305.16015625 318.64453125 C-286.52559737 303.55941216 -264.76332371 294.03257155 -242 287 C-242.66644531 286.68289063 -243.33289062 286.36578125 -244.01953125 286.0390625 C-259.8854389 278.00625331 -270.73961192 265.24070307 -276.34375 248.40234375 C-281.01134358 231.31561725 -278.28803239 213.78171887 -270.0234375 198.37109375 C-266.9571724 193.26262505 -263.25965421 189.13685337 -259 185 C-258.45988281 184.43925781 -257.91976562 183.87851562 -257.36328125 183.30078125 C-246.4929039 172.86850475 -230.64169295 168.52096099 -215.97998047 168.61523438 C-214.93944519 168.6098616 -213.89890991 168.60448883 -212.82684326 168.59895325 C-210.5882133 168.58923803 -208.34954596 168.58621196 -206.11089706 168.58930969 C-202.56204229 168.59382009 -199.01367764 168.57969767 -195.46487427 168.56091309 C-186.6571086 168.51807506 -177.84935546 168.50689035 -169.04150391 168.49468994 C-161.58130545 168.48314054 -154.12133242 168.45952768 -146.66122818 168.41999817 C-143.17532988 168.40647555 -139.68974092 168.41058913 -136.2038269 168.41540527 C-134.0562908 168.40606143 -131.90875808 168.39589179 -129.76123047 168.38476562 C-128.80098969 168.39091385 -127.8407489 168.39706207 -126.85140991 168.40339661 C-118.67565256 168.32931051 -110.97998459 166.97998459 -105 161 C-99.19087727 153.53112791 -98.70562392 146.61887769 -98.74462891 137.51342773 C-98.74100845 136.48150803 -98.737388 135.44958832 -98.73365784 134.38639832 C-98.7267838 132.15315571 -98.72425465 129.91989638 -98.72560501 127.6866436 C-98.72657414 124.14100277 -98.71358002 120.5956619 -98.69662476 117.05006409 C-98.65048295 106.97146954 -98.62577124 96.89290557 -98.61914062 86.81420898 C-98.61410015 80.6397893 -98.58971917 74.46568201 -98.55381393 68.29136848 C-98.5440721 65.95007269 -98.54165299 63.60873361 -98.54698563 61.26742363 C-98.59593685 38.70951767 -95.50337828 21.59147461 -79 5 C-78.48179688 4.44699219 -77.96359375 3.89398438 -77.4296875 3.32421875 C-73.54734532 -0.44632824 -68.90062358 -2.80194967 -64.125 -5.25 C-63.46491943 -5.5917627 -62.80483887 -5.93352539 -62.12475586 -6.28564453 C-42.40691678 -15.98627035 -17.55063637 -12.41386475 0 0 Z M-98.88671875 289.41552734 C-110.91863164 291.14210066 -122.85943198 291.4349324 -135 291.625 C-137.0468896 291.66328994 -139.09376498 291.70234753 -141.140625 291.7421875 C-146.09363114 291.83695322 -151.04671194 291.92140681 -156 292 C-153.32489708 293.78340194 -150.65745544 295.14079388 -147.75878906 296.51098633 C-129.78358266 305.09391433 -114.79593942 317.14729914 -103.05859375 333.25 C-101.45490764 335.39230555 -99.90647839 337.15359757 -98 339 C-97.98541748 338.35264893 -97.97083496 337.70529785 -97.95581055 337.03833008 C-97.60135387 322.83376047 -96.64920981 308.99891098 -94.25952148 294.98510742 C-93.91357925 292.67262509 -93.91357925 292.67262509 -94 289 C-96.15614589 288.95250799 -96.15614589 288.95250799 -98.88671875 289.41552734 Z M-53.09375 1122.91796875 C-54.957514 1124.900272 -54.957514 1124.900272 -57 1128 C-56.67 1128.99 -56.34 1129.98 -56 1131 C-48.71945536 1126.97246467 -41.44716577 1121.81705772 -38 1114 C-43.28165256 1114 -49.34519878 1119.48412798 -53.09375 1122.91796875 Z " fill="#050708" transform="translate(2019,248)"/>
<path d="M0 0 C2.50935843 0.01076558 5.01800609 0.00000278 7.52734375 -0.01269531 C47.09957852 -0.04883279 84.90993597 13.53215149 113.50390625 41.38574219 C148.96972712 77.03229416 163.85687431 134.52922652 164.08203125 183.35839844 C164.08909088 184.38258881 164.09615051 185.40677917 164.10342407 186.46200562 C164.33319661 229.5812916 164.33319661 229.5812916 160.87890625 248.26074219 C160.68554688 249.33614258 160.4921875 250.41154297 160.29296875 251.51953125 C153.05519882 290.46722223 136.58793324 329.7122223 109.99609375 359.51464844 C109.52695557 360.04912598 109.05781738 360.58360352 108.57446289 361.13427734 C107.2722138 362.60686475 105.94543514 364.05765528 104.6171875 365.50683594 C102.62892576 368.09531223 102.62892576 368.09531223 102.9375 370.93652344 C103.40349609 372.58201172 103.40349609 372.58201172 103.87890625 374.26074219 C104.29163523 375.92188533 104.70294755 377.58338074 105.11328125 379.24511719 C105.61538961 381.16780441 106.1207577 383.0896425 106.62890625 385.01074219 C107.02770996 386.52970093 107.02770996 386.52970093 107.43457031 388.0793457 C109.30636392 395.17777159 111.23375555 402.25963558 113.22949219 409.32421875 C114.53369688 413.95024394 115.73157205 418.59317805 116.87890625 423.26074219 C120.46746179 421.9558129 123.60851616 420.29822954 126.83984375 418.26074219 C132.23248953 415.61607299 137.49669966 414.96653359 143.44140625 414.94824219 C144.70082031 414.93148438 145.96023438 414.91472656 147.2578125 414.89746094 C152.56524768 415.42992207 156.54633909 417.29593417 160.00390625 421.38574219 C170.06809455 433.99218639 172.04045992 451.69356278 172.31640625 467.26074219 C172.38504883 468.84242188 172.38504883 468.84242188 172.45507812 470.45605469 C172.52784385 475.50536346 172.52804594 479.2189647 169.2421875 483.23339844 C159.43393115 492.78023608 146.36099756 498.17103799 133.87890625 503.26074219 C133.21665039 503.53515137 132.55439453 503.80956055 131.87207031 504.09228516 C104.5139267 515.3259363 62.47938107 527.38715194 33.46875 516.52246094 C29.44975032 514.56448673 26.169377 512.27396706 22.87890625 509.26074219 C22.28722656 508.75929688 21.69554687 508.25785156 21.0859375 507.74121094 C12.01676301 499.51288706 5.75265725 486.98832321 4.53515625 474.82714844 C4.33923437 467.63518261 4.67915766 462.76923845 9.66015625 457.30761719 C17.84836699 449.29741103 27.48663251 445.53798779 38.87890625 445.26074219 C38.06582031 443.63457031 37.25270269 442.00841427 36.43945312 440.38232422 C35.72669369 438.95647719 35.01446231 437.5303661 34.30273438 436.10400391 C32.40284055 432.29837299 30.49417078 428.49765279 28.56640625 424.70605469 C28.19966797 423.98160156 27.83292969 423.25714844 27.45507812 422.51074219 C26.74603893 421.1106793 26.03387228 419.71219522 25.31835938 418.31542969 C22.87890625 413.485607 22.87890625 413.485607 22.87890625 411.26074219 C21.55439453 411.96650391 21.55439453 411.96650391 20.203125 412.68652344 C18.9911743 413.3159862 17.77891774 413.94486032 16.56640625 414.57324219 C15.99083984 414.88197266 15.41527344 415.19070313 14.82226562 415.50878906 C-13.41643997 430.00974599 -56.39732599 425.90923964 -87.18359375 422.94824219 C-88.40618896 422.83077637 -89.62878418 422.71331055 -90.88842773 422.59228516 C-98.80284714 421.73212964 -106.40542531 420.20084371 -114.12109375 418.26074219 C-114.96518799 418.05843994 -115.80928223 417.8561377 -116.67895508 417.64770508 C-160.26604864 407.16807113 -193.76899191 382.5296131 -217.453125 344.58105469 C-222.33221139 336.49237158 -225.83795152 328.07804333 -229.12109375 319.26074219 C-229.48976563 318.36226562 -229.8584375 317.46378906 -230.23828125 316.53808594 C-232.51117482 310.83823267 -233.95725099 305.05741239 -235.24609375 299.07324219 C-235.40480957 298.34395508 -235.56352539 297.61466797 -235.72705078 296.86328125 C-238.44669353 283.5653435 -239.50275716 270.36819572 -239.43359375 256.82324219 C-239.43210327 256.09283722 -239.43061279 255.36243225 -239.42907715 254.6098938 C-239.35828212 235.13994032 -237.36268882 216.05026054 -232.12109375 197.26074219 C-231.91693848 196.5232373 -231.7127832 195.78573242 -231.50244141 195.02587891 C-221.71681316 160.02201053 -204.92332552 126.31817041 -183.12109375 97.26074219 C-182.65848145 96.64118652 -182.19586914 96.02163086 -181.71923828 95.38330078 C-175.04464906 86.50517305 -167.81416169 78.26549536 -160.12109375 70.26074219 C-159.60289062 69.71530762 -159.0846875 69.16987305 -158.55078125 68.60791016 C-150.65818319 60.32894415 -142.3532187 53.01241094 -133.12109375 46.26074219 C-132.51458984 45.81520996 -131.90808594 45.36967773 -131.28320312 44.91064453 C-115.10855395 33.14379897 -97.54177386 23.07029431 -79.12109375 15.26074219 C-78.40872559 14.9582959 -77.69635742 14.65584961 -76.96240234 14.34423828 C-67.19817737 10.28932758 -57.28415456 7.36781812 -46.99609375 4.94824219 C-45.46094116 4.58448486 -45.46094116 4.58448486 -43.89477539 4.21337891 C-29.31009241 0.95648213 -14.90088049 -0.07578695 0 0 Z " fill="#E05199" transform="translate(1071.12109375,799.7392578125)"/>
<path d="M0 0 C3.97305323 0.01078901 7.94566099 0.00001138 11.91870117 -0.01269531 C14.4818532 -0.01137464 17.04500495 -0.00881417 19.6081543 -0.00488281 C20.77716782 -0.00893127 21.94618134 -0.01297974 23.15061951 -0.01715088 C30.62187685 0.02494166 37.69052682 0.80385615 45.01831055 2.26074219 C45.86488628 52.9908051 21.37941147 100.40170179 -7.98168945 140.26074219 C-8.40514648 140.83727539 -8.82860352 141.41380859 -9.26489258 142.0078125 C-12.08804615 145.82645207 -14.99724538 149.56694547 -17.98168945 153.26074219 C-18.41400879 153.79747559 -18.84632813 154.33420898 -19.29174805 154.88720703 C-26.69672095 163.97500729 -34.84673518 172.33206005 -43.10668945 180.63574219 C-43.61161926 181.14593903 -44.11654907 181.65613586 -44.63677979 182.18179321 C-50.69156187 188.28536256 -56.87973234 193.97835827 -63.60620117 199.35302734 C-66.34701152 201.55412622 -68.91479108 203.86052553 -71.48168945 206.26074219 C-76.81143338 211.1544845 -82.34939196 215.72181534 -87.98168945 220.26074219 C-89.19996509 221.25843024 -90.41736252 222.25719129 -91.6340332 223.25683594 C-108.39412193 237.0034988 -125.79312917 249.90522469 -143.15063477 262.88232422 C-173.5555988 285.45162444 -173.5555988 285.45162444 -202.98168945 309.26074219 C-203.72757324 309.88795166 -203.72757324 309.88795166 -204.48852539 310.52783203 C-213.40391102 318.08413135 -220.48355459 325.85015941 -223.98168945 337.26074219 C-222.92981445 337.38449219 -221.87793945 337.50824219 -220.79418945 337.63574219 C-216.08054698 338.21767336 -211.4010773 338.98395249 -206.71606445 339.76074219 C-197.39821957 341.00831975 -188.12129948 341.41881591 -178.7277832 341.42871094 C-177.58801529 341.43203934 -176.44824738 341.43536774 -175.27394104 341.438797 C-172.86964313 341.4438295 -170.46533833 341.44620647 -168.06103516 341.44604492 C-164.48042427 341.44820524 -160.90013559 341.46632839 -157.31958008 341.48535156 C-124.42946454 341.5656007 -87.96400617 340.62491498 -56.98168945 328.26074219 C-56.94430664 327.36613281 -56.90692383 326.47152344 -56.8684082 325.54980469 C-56.39489428 316.84086234 -55.62426186 309.03770001 -51.35668945 301.32324219 C-46.08710817 296.74702686 -38.51411587 295.71773624 -31.73168945 295.07324219 C-30.91667969 294.99501221 -30.10166992 294.91678223 -29.26196289 294.83618164 C-20.74732921 294.14276076 -12.21537494 294.01967531 -3.67663574 293.96420288 C-2.07170119 293.95372581 -0.46678789 293.93891388 1.13806152 293.91934204 C29.05878298 293.6250125 29.05878298 293.6250125 39.01831055 301.26074219 C40.5925293 303.45214844 40.5925293 303.45214844 41.70581055 305.82324219 C42.26848633 306.96986328 42.26848633 306.96986328 42.8425293 308.13964844 C50.67087551 328.91987643 51.4059192 351.92740721 51.45581055 373.88574219 C51.46479874 375.18621994 51.46479874 375.18621994 51.47396851 376.51296997 C51.54943116 392.88875373 51.51785377 412.69009667 43.01831055 427.26074219 C33.82926216 435.83030416 18.7569686 434.41742554 6.98706055 434.42871094 C5.14126404 434.43370354 5.14126404 434.43370354 3.25817871 434.438797 C0.66292695 434.4438381 -1.93233124 434.4462062 -4.52758789 434.44604492 C-8.44208841 434.44822018 -12.35630157 434.46637569 -16.27075195 434.48535156 C-55.13150799 434.57966478 -55.13150799 434.57966478 -63.98168945 428.26074219 C-67.15434263 423.17596835 -67.61651682 417.11197359 -68.16918945 411.26074219 C-68.25104492 410.48601562 -68.33290039 409.71128906 -68.41723633 408.91308594 C-68.61485037 407.02994036 -68.79964319 405.14545642 -68.98168945 403.26074219 C-69.8324707 403.56367187 -70.68325195 403.86660156 -71.55981445 404.17871094 C-98.68054473 413.55555917 -127.34868152 418.67177501 -155.98168945 420.26074219 C-157.1545752 420.32777344 -158.32746094 420.39480469 -159.53588867 420.46386719 C-191.67825334 422.16050768 -223.98265194 420.59915454 -255.98168945 417.26074219 C-256.10801758 418.52273438 -256.2343457 419.78472656 -256.36450195 421.08496094 C-256.6823082 424.25978044 -257.00599274 425.29719712 -258.85668945 428.07324219 C-270.50860756 436.22958486 -287.89921607 434.42148658 -301.44262695 434.42871094 C-302.88701407 434.43193503 -304.33140087 434.43529991 -305.77578735 434.438797 C-308.77590696 434.44472835 -311.775998 434.44664272 -314.77612305 434.44604492 C-318.60560199 434.44594264 -322.43489826 434.45968886 -326.26433372 434.47681713 C-329.23614334 434.48796092 -332.20790873 434.48996354 -335.17973709 434.4894352 C-336.59183008 434.49060809 -338.00392449 434.49499067 -339.41599655 434.50276756 C-341.38887866 434.51263299 -343.36181573 434.50840836 -345.3347168 434.50366211 C-346.45244476 434.50508713 -347.57017273 434.50651215 -348.72177124 434.50798035 C-352.42114698 434.22741293 -355.45536693 433.38660111 -358.98168945 432.26074219 C-359.39926326 403.78220824 -359.39926326 403.78220824 -356.98168945 392.26074219 C-356.79630615 391.31473145 -356.79630615 391.31473145 -356.60717773 390.34960938 C-350.20022134 357.9964211 -333.55257683 329.66242893 -312.98168945 304.26074219 C-312.16313477 303.23722656 -311.34458008 302.21371094 -310.5012207 301.15917969 C-303.94241354 293.14528497 -296.71499972 285.784377 -289.41918945 278.44824219 C-288.93640533 277.96019104 -288.45362122 277.47213989 -287.95620728 276.96929932 C-282.07550939 271.03906007 -276.02179269 265.47094312 -269.47412109 260.27563477 C-266.89157756 258.18789534 -264.43242929 256.00104557 -261.98168945 253.76074219 C-256.80664768 249.05615876 -251.42101384 244.65456829 -245.98168945 240.26074219 C-244.71547442 239.22630775 -243.44988602 238.19110597 -242.18481445 237.15527344 C-234.5194155 230.88611525 -226.79662787 224.71984176 -218.91088867 218.72900391 C-216.66108989 217.01674247 -214.41712017 215.29697019 -212.1730957 213.57714844 C-203.49772871 206.93695379 -194.79080552 200.34771881 -185.98168945 193.88574219 C-178.56597675 188.44548644 -171.23960361 182.91048291 -163.98168945 177.26074219 C-162.5469065 176.14731547 -161.11200266 175.0340445 -159.67700195 173.92089844 C-155.10704598 170.37372593 -150.54339277 166.81851852 -145.98168945 163.26074219 C-145.03543701 162.52355957 -145.03543701 162.52355957 -144.07006836 161.77148438 C-117.98244195 141.70250718 -117.98244195 141.70250718 -93.98168945 119.26074219 C-88.98168945 114.26074219 -88.98168945 114.26074219 -87.21606445 112.60058594 C-83.12447929 108.6781411 -79.57290914 104.54701711 -76.21606445 99.98339844 C-75.80598145 99.43107544 -75.39589844 98.87875244 -74.97338867 98.30969238 C-73.97342045 96.96206757 -72.97716578 95.61168852 -71.98168945 94.26074219 C-73.01535645 94.31609131 -74.04902344 94.37144043 -75.11401367 94.4284668 C-79.14375436 94.64312831 -83.17376629 94.85233378 -87.20385742 95.06030273 C-88.91161156 95.14910092 -90.61930038 95.23916902 -92.3269043 95.33081055 C-116.27860518 96.61368142 -140.25266235 97.24508237 -164.2355957 97.50683594 C-164.98985336 97.51523687 -165.74411102 97.52363781 -166.52122498 97.53229332 C-173.42488615 97.60858021 -180.32857285 97.68050705 -187.23242188 97.73754883 C-191.08431242 97.76975839 -194.93602275 97.8110437 -198.7877636 97.85774422 C-200.2166718 97.87340731 -201.64561971 97.88588503 -203.07458687 97.89465141 C-213.51599468 97.95994317 -223.64427169 98.87152221 -233.98168945 100.26074219 C-234.16579376 101.00950119 -234.34989807 101.75826019 -234.5395813 102.52970886 C-239.2323639 121.28500494 -239.2323639 121.28500494 -244.9387207 125.38574219 C-248.18223502 126.03815192 -251.20657848 126.27774529 -254.51245117 126.23779297 C-257.33852798 126.26405866 -260.08259829 126.54271709 -262.8918457 126.85058594 C-312.67753835 132.09118516 -312.67753835 132.09118516 -325.2434082 122.54199219 C-337.6015312 106.32369144 -336.16883352 78.63388116 -336.16699219 59.38647461 C-336.16918304 56.8307234 -336.187426 54.27540222 -336.20629883 51.71972656 C-336.25392907 38.01845134 -335.59434413 24.98944118 -329.98168945 12.26074219 C-329.70325195 11.473125 -329.42481445 10.68550781 -329.13793945 9.87402344 C-328.00967966 7.33998833 -327.10520178 6.0637112 -324.98168945 4.26074219 C-315.00338111 1.74867699 -304.31314426 1.96125108 -294.09887695 1.99511719 C-292.62688127 1.99376389 -291.15488603 1.99181789 -289.68289185 1.98931885 C-286.62570868 1.98640061 -283.56864382 1.99055837 -280.51147461 2 C-276.63105832 2.01141299 -272.7509183 2.00480225 -268.87051201 1.99285507 C-265.84011828 1.98556362 -262.80978808 1.98795713 -259.77939224 1.99311066 C-258.34993582 1.99442606 -256.92047324 1.99287533 -255.49102402 1.98815155 C-244.09075397 1.95871521 -232.33189978 1.96528574 -221.98168945 7.26074219 C-221.78595337 8.6971439 -221.60041129 10.13493723 -221.41918945 11.57324219 C-221.31477539 12.37375 -221.21036133 13.17425781 -221.1027832 13.99902344 C-220.98168945 16.26074219 -220.98168945 16.26074219 -221.98168945 19.26074219 C-220.25499023 19.16224976 -220.25499023 19.16224976 -218.4934082 19.06176758 C-206.99194695 18.42102467 -195.49804234 17.95491358 -183.98168945 17.69824219 C-183.0684491 17.67772797 -182.15520874 17.65721375 -181.21429443 17.63607788 C-159.61766604 17.17468898 -138.01650927 17.11771684 -116.41577148 17.07951736 C-113.6237627 17.07328033 -110.83178901 17.06337746 -108.03979492 17.05245972 C-103.56668089 17.03562528 -99.09366949 17.02966784 -94.62052536 17.0314827 C-92.96162791 17.03069207 -91.30272794 17.02662515 -89.64384842 17.01887131 C-78.92899241 16.97259953 -68.58139127 17.67132348 -57.98168945 19.26074219 C-57.77129028 17.35010986 -57.77129028 17.35010986 -57.55664062 15.40087891 C-57.18261937 12.00439644 -56.65306885 9.97369912 -54.29418945 7.38574219 C-53.81594727 6.83144531 -53.33770508 6.27714844 -52.8449707 5.70605469 C-40.6600885 -3.74553109 -14.27575849 -0.046174 0 0 Z " fill="#EA2D3C" transform="translate(1230.981689453125,334.7392578125)"/>
<path d="M0 0 C0.67361572 0.18908936 1.34723145 0.37817871 2.04125977 0.57299805 C6.03682125 1.82518175 8.65256512 3.04630648 11.0625 6.5 C12.21789764 9.77648937 12.95992396 13.10624069 13.6875 16.5 C13.99300781 17.82451172 13.99300781 17.82451172 14.3046875 19.17578125 C14.92961421 21.94388608 15.50615612 24.71732385 16.0625 27.5 C16.25376465 28.44891113 16.4450293 29.39782227 16.64208984 30.37548828 C19.64113382 46.56817781 20.78455343 66.13214759 14.0625 81.5 C13.711875 82.38558594 13.36125 83.27117187 13 84.18359375 C11.14088934 88.21812209 9.17825039 90.90420273 5.25 93.0625 C0.89918901 94.65657865 -3.46842697 94.87355397 -8.0625 94.9375 C-8.73128174 94.94789307 -9.40006348 94.95828613 -10.08911133 94.96899414 C-15.13158271 94.87889453 -18.44607581 93.53032835 -22.9375 91.5 C-22.86748602 97.2763466 -22.77901102 103.05204534 -22.67504883 108.82788086 C-22.64225462 110.78353544 -22.61408938 112.73927437 -22.59106445 114.69506836 C-22.19261239 147.68181225 -15.42584176 177.22923691 7.9375 201.8125 C19.80042229 213.21774782 32.66916336 218.23363425 49.0625 218 C50.14789062 218.01546875 51.23328125 218.0309375 52.3515625 218.046875 C70.18309119 217.9617603 85.95874804 208.99903227 98.63916016 196.93945312 C105.30335693 190.19981262 109.65097806 182.26196641 113.0625 173.5 C113.42085937 172.60023438 113.77921875 171.70046875 114.1484375 170.7734375 C119.6313322 155.8088452 120.53093227 140.38919311 120.3125 124.625 C120.30056762 122.95622341 120.28950725 121.28744036 120.27929688 119.61865234 C120.18907356 108.23088285 119.8802495 96.86087694 119.0625 85.5 C118.010625 85.974375 116.95875 86.44875 115.875 86.9375 C107.97913252 90.29588749 97.60642285 91.36946236 89.375 88.59375 C85.96150808 86.63601199 84.36847922 85.12526189 82.625 81.5625 C82.439375 80.551875 82.25375 79.54125 82.0625 78.5 C81.80364014 77.13560791 81.80364014 77.13560791 81.53955078 75.74365234 C79.66289686 62.98355816 81.35412812 49.54549959 82.85693359 36.82373047 C83.0790025 34.84282332 83.2739406 32.85870315 83.44287109 30.87255859 C84.82169793 14.8125089 84.82169793 14.8125089 88.47677612 11.04046631 C92.33195689 8.45011942 96.58030552 7.46011283 101.0625 6.5 C102.56368927 6.00208669 104.06102194 5.4920722 105.55078125 4.9609375 C109.0156058 3.97705474 112.4802482 2.99758989 115.95947266 2.06591797 C117.89893565 1.54401465 119.83077018 0.9939797 121.76171875 0.44140625 C145.71192696 -5.88459941 170.23977998 -6.8858543 194.875 -6.9375 C195.97639313 -6.94358276 197.07778625 -6.94966553 198.21255493 -6.95593262 C246.59282563 -7.13085267 246.59282563 -7.13085267 262.94921875 8.27734375 C272.12197439 19.13806411 269.84504812 37.23219501 268.78515625 50.546875 C267.60988521 60.62062676 264.79384038 71.47150875 257.0625 78.5 C250.79561739 82.00952017 244.28001674 83.58013311 237.25 84.75 C236.25967773 84.91910889 235.26935547 85.08821777 234.24902344 85.26245117 C224.35372003 86.82366462 211.74501382 88.72750461 202.0625 85.5 C202.08755615 86.48796066 202.1126123 87.47592133 202.13842773 88.49382019 C202.37769521 97.94717639 202.61302682 107.40062407 202.84480286 116.85416698 C202.96399054 121.71068871 203.08441914 126.5671721 203.20800781 131.42358398 C203.77618766 153.7870318 204.24300463 176.12801276 204.0625 198.5 C205.32046387 198.35667236 206.57842773 198.21334473 207.87451172 198.06567383 C246.05189415 193.72791381 246.05189415 193.72791381 260.0625 197.5 C262.15266843 202.6712932 262.41122319 207.19915421 262.375 212.6875 C262.37081055 213.56462646 262.36662109 214.44175293 262.36230469 215.34545898 C262.20677093 224.57903515 260.82404961 233.45390272 259.0625 242.5 C258.83771973 243.69737793 258.83771973 243.69737793 258.60839844 244.91894531 C252.76550923 275.8205101 252.76550923 275.8205101 246.0625 282.5 C226.62325626 292.67733259 201.63147593 291.7160568 180.3125 291.6875 C179.47788239 291.68689575 178.64326477 291.6862915 177.78335571 291.68566895 C139.17226217 291.60976217 139.17226217 291.60976217 130.625 283.0625 C126.96097601 277.05350066 126.77999211 272.21126031 126.875 265.3125 C126.88466797 263.86593018 126.88466797 263.86593018 126.89453125 262.39013672 C126.98896165 253.40892084 127.44313117 244.45872776 128.0625 235.5 C127.66047363 235.93755615 127.25844727 236.3751123 126.84423828 236.82592773 C96.52834646 269.73229305 59.91616451 295.6069984 13.8828125 297.85546875 C-14.08138206 298.71322753 -40.16202596 292.44025381 -61.01464844 272.94287109 C-72.86407415 261.39435024 -79.90261504 247.76470901 -85.9375 232.5 C-86.41058594 231.30761719 -86.88367187 230.11523438 -87.37109375 228.88671875 C-90.57609866 219.75095709 -92.14232145 210.3462418 -93.6875 200.8125 C-93.8482753 199.82366318 -93.8482753 199.82366318 -94.01229858 198.81484985 C-96.48164726 183.41453612 -97.1393964 168.30948505 -97.125 152.75 C-97.12539276 151.84902588 -97.12578552 150.94805176 -97.12619019 150.01977539 C-97.11858455 135.42600937 -96.5531885 121.01490142 -94.9375 106.5 C-94.79417236 105.19095703 -94.79417236 105.19095703 -94.64794922 103.85546875 C-94.41439769 101.73661675 -94.17644895 99.61825011 -93.9375 97.5 C-94.6903125 97.52320313 -95.443125 97.54640625 -96.21875 97.5703125 C-102.70508734 97.68051726 -109.11159653 97.46614827 -115.5625 96.8125 C-116.24892578 96.75916504 -116.93535156 96.70583008 -117.64257812 96.65087891 C-120.89073011 96.27764908 -122.58012699 95.9052762 -124.7734375 93.41796875 C-127.95780425 85.43568029 -128.24489001 78.14218952 -128.23828125 69.62890625 C-128.24256638 68.39317368 -128.2468515 67.1574411 -128.25126648 65.88426208 C-128.25699488 63.27286387 -128.25752106 60.66144971 -128.25317383 58.05004883 C-128.25003514 54.10664681 -128.27341926 50.1640114 -128.29882812 46.22070312 C-128.3893402 12.07657558 -128.3893402 12.07657558 -123.17895508 5.16845703 C-120.55098123 3.21228959 -118.54145582 2.5898505 -115.34375 1.90234375 C-114.2403125 1.65959717 -113.136875 1.41685059 -112 1.16674805 C-110.2365625 0.80577026 -110.2365625 0.80577026 -108.4375 0.4375 C-107.2309375 0.18073486 -106.024375 -0.07603027 -104.78125 -0.34057617 C-69.94801036 -7.60288229 -34.6490133 -9.8051696 0 0 Z " fill="#4FB7E8" transform="translate(1410.9375,926.5)"/>
<path d="M0 0 C0.91652344 0.70189453 0.91652344 0.70189453 1.8515625 1.41796875 C14.6713272 11.39865314 23.03692059 28.06906865 25.28344727 44.01147461 C28.25947892 68.70101893 23.44063876 92.59033526 8.515625 112.87109375 C-7.64372057 133.34175272 -28.78700355 147.90031147 -54 155 C-54.83789062 155.24234375 -55.67578125 155.4846875 -56.5390625 155.734375 C-59.67754028 156.58167754 -62.82354691 157.30792363 -66 158 C-67.28777344 158.28230469 -68.57554687 158.56460938 -69.90234375 158.85546875 C-93.16596714 163.45359891 -124.14330434 165.08234895 -145 152 C-145.74877778 166.72596305 -141.25358796 179.25112192 -131.5625 190.3125 C-119.84888072 202.67036834 -106.07097456 211.59540459 -88.67578125 212.4140625 C-86.38833108 212.46139131 -84.10041762 212.4899368 -81.8125 212.5 C-80.19214844 212.50942627 -80.19214844 212.50942627 -78.5390625 212.51904297 C-60.55894586 212.23707707 -44.995787 205.46714482 -32 193 C-28.94525194 189.65936563 -27.60684418 187.56156556 -27.1875 183.0625 C-26.35520867 178.36698977 -25.13021852 176.29777933 -21.3046875 173.49609375 C-20.54414062 173.00238281 -19.78359375 172.50867188 -19 172 C-18.03320312 171.35160156 -17.06640625 170.70320312 -16.0703125 170.03515625 C0.82019913 159.15961099 20.7311485 152.6700873 41 156 C45.78815223 157.93161317 49.20799153 160.53697857 53 164 C53.87785156 164.7321875 54.75570313 165.464375 55.66015625 166.21875 C72.22694482 180.41171517 85.65071044 200.53860127 88.31640625 222.62109375 C88.68839991 230.50495943 85.9766078 235.72737076 81.1875 241.8125 C68.76906901 255.10510625 51.58818019 263.0229878 35.76464844 271.47875977 C32.91110986 272.997967 32.91110986 272.997967 30 275 C24.78068679 275.08698855 22.01373423 274.4900196 18.1875 270.875 C15.13027992 267.50368197 13.48468074 264.2793739 12 260 C8.45142128 261.34831673 5.17299925 262.92303836 1.8515625 264.7578125 C-19.12447395 276.14995556 -39.34208425 283.63284304 -63 287 C-64.89492187 287.28810547 -64.89492187 287.28810547 -66.828125 287.58203125 C-104.96335227 292.13456433 -142.8769463 281.6602989 -173.0625 258.125 C-174.71738591 256.76090874 -176.36302163 255.38553028 -178 254 C-178.88429688 253.26265625 -179.76859375 252.5253125 -180.6796875 251.765625 C-199.38127592 235.55404977 -213.15441337 212.31935933 -218 188 C-218.27714844 186.86820313 -218.55429688 185.73640625 -218.83984375 184.5703125 C-227.65688555 144.18257262 -217.0613581 98.40998453 -195.16894531 63.79248047 C-168.96048567 23.60398617 -134.03639594 -10.47307009 -85.75 -20.6875 C-55.61833702 -25.90259552 -23.42642437 -20.42412089 0 0 Z " fill="#F49223" transform="translate(1544,586)"/>
<path d="M0 0 C13.41833909 11.51594283 23.9016811 27.67450349 25.3125 45.6875 C26.73590529 72.29801722 22.98854787 95.75364039 5.3125 116.6875 C4.50296875 117.65816406 3.6934375 118.62882812 2.859375 119.62890625 C-15.31971804 140.7633714 -41.34166475 154.07384511 -68.6875 158.6875 C-69.78964844 158.89246094 -70.89179687 159.09742188 -72.02734375 159.30859375 C-81.42249265 160.78774314 -90.81863133 160.89871267 -100.3125 160.9375 C-101.61050537 160.94676514 -102.90851074 160.95603027 -104.24584961 160.96557617 C-118.90882286 160.91822534 -133.02889877 159.6075874 -145.6875 151.6875 C-146.75511033 164.7657265 -141.54276732 177.99300358 -133.72265625 188.26953125 C-125.55192746 197.88823729 -115.57856606 205.37423991 -103.6875 209.6875 C-102.81222656 210.00589844 -101.93695312 210.32429688 -101.03515625 210.65234375 C-84.65249859 215.63836999 -65.01067379 213.89232663 -49.9375 206 C-43.66655864 202.53623513 -37.97272372 198.54419206 -32.6875 193.6875 C-32.14351562 193.19765625 -31.59953125 192.7078125 -31.0390625 192.203125 C-28.13606897 189.21622992 -27.39404573 186.66337389 -26.8125 182.6875 C-26.02083925 178.03475701 -24.85016227 175.96617938 -21.05859375 173.18359375 C-11.9699388 167.44890702 -2.84850411 162.30761482 7.3125 158.6875 C8.19550781 158.3678125 9.07851562 158.048125 9.98828125 157.71875 C20.16225758 154.61043474 33.50427254 153.29989245 43.6875 156.87109375 C46.52953229 158.59366274 48.85495968 160.45090574 51.3125 162.6875 C52.31539062 163.54472656 53.31828125 164.40195313 54.3515625 165.28515625 C57.44902975 167.98169571 60.38801375 170.80403039 63.3125 173.6875 C64.05628906 174.41839844 64.80007813 175.14929687 65.56640625 175.90234375 C77.63292648 188.58281608 87.35553449 208.84837938 88.9375 226.25 C88.59042704 234.71556212 80.76121109 241.89423999 74.97265625 247.421875 C63.22253977 257.42931635 49.19658986 264.28181668 35.61816406 271.42578125 C33.14982464 272.73298618 33.14982464 272.73298618 30.3125 274.6875 C26.72801094 275.32005689 24.37238015 275.33806076 21.21875 273.40234375 C16.35548132 269.41918153 13.73855393 265.44937808 11.3125 259.6875 C10.49910156 260.1721875 9.68570312 260.656875 8.84765625 261.15625 C-0.40250594 266.59671576 -9.85929345 271.3792137 -19.6875 275.6875 C-20.64148682 276.10926514 -20.64148682 276.10926514 -21.61474609 276.53955078 C-51.07336574 289.29904189 -86.51224639 291.2782656 -117.6875 284.6875 C-119.61142578 284.28724609 -119.61142578 284.28724609 -121.57421875 283.87890625 C-143.07846412 278.7370835 -162.11838415 268.18870747 -178.6875 253.6875 C-179.50347656 253.01589844 -180.31945313 252.34429688 -181.16015625 251.65234375 C-202.55350126 233.51377073 -216.29149232 206.40134836 -219.6875 178.6875 C-219.77813721 178.03088379 -219.86877441 177.37426758 -219.9621582 176.69775391 C-226.05836828 129.21091853 -211.55029579 83.2618176 -182.6875 45.6875 C-179.15686954 41.23285581 -175.45512732 36.94236934 -171.6875 32.6875 C-170.88183594 31.77097656 -170.07617188 30.85445312 -169.24609375 29.91015625 C-150.26947636 8.55744802 -127.20297946 -8.81260219 -99.6875 -17.3125 C-98.74519531 -17.60769531 -97.80289062 -17.90289063 -96.83203125 -18.20703125 C-63.30189222 -28.02899117 -27.07102173 -22.36402941 0 0 Z " fill="#7FBC40" transform="translate(1937.6875,937.3125)"/>
<path d="M0 0 C14.24498552 12.0432876 26.28897989 27.67879949 28.49755859 46.76904297 C29.51348277 61.60109134 30.03755034 76.76289172 24.49755859 90.76904297 C24.14346924 91.72327148 24.14346924 91.72327148 23.78222656 92.69677734 C13.75186805 119.52200438 -7.32307773 139.02284525 -32.86572266 151.17919922 C-52.52832445 159.77498754 -72.29493357 163.48163409 -93.74414062 163.2355957 C-96.5300528 163.20625214 -99.31409163 163.21513592 -102.10009766 163.22802734 C-116.50021497 163.21105566 -131.15388196 162.00141593 -143.50244141 153.76904297 C-140.94575094 172.47653421 -136.1750137 188.21453928 -121.11572266 200.85498047 C-112.97728416 206.81586965 -104.39454812 211.5275731 -94.50244141 213.76904297 C-93.9168042 213.93960205 -93.33116699 214.11016113 -92.7277832 214.28588867 C-87.90428678 215.33314039 -82.85483143 214.99713817 -77.93994141 215.01904297 C-76.81007813 215.03966797 -75.68021484 215.06029297 -74.51611328 215.08154297 C-56.89746147 215.16268817 -42.36004846 208.42518716 -29.92822266 196.22216797 C-29.12771484 195.41263672 -28.32720703 194.60310547 -27.50244141 193.76904297 C-26.90431641 193.27017578 -26.30619141 192.77130859 -25.68994141 192.25732422 C-23.99197639 190.12928254 -24.26347192 188.39621159 -24.18994141 185.70654297 C-23.42896983 180.98477671 -21.92057359 178.71566545 -18.12207031 175.77929688 C-0.45510876 163.45872736 21.72042501 155.27167218 43.49755859 158.76904297 C48.91239386 160.62684211 53.1807852 164.1112979 57.49755859 167.76904297 C58.47080078 168.53861328 59.44404297 169.30818359 60.44677734 170.10107422 C77.25550505 184.23728455 88.11663405 205.61116432 91.49755859 227.14404297 C91.95541723 234.54207457 88.19538918 239.16688394 83.62255859 244.64404297 C74.78990165 254.05305599 63.7204983 260.49084088 52.46240234 266.58544922 C49.81873979 268.01880698 47.24190469 269.51967008 44.68896484 271.10888672 C33.50284724 278.01996974 33.50284724 278.01996974 27.39208984 277.35107422 C22.98765794 275.99796009 20.56447796 273.50735708 18.24365234 269.72607422 C15.49755859 264.47309349 15.49755859 264.47309349 15.49755859 261.76904297 C14.87751953 262.10935547 14.25748047 262.44966797 13.61865234 262.80029297 C11.70552557 263.8473609 9.78988117 264.8898343 7.87255859 265.92919922 C5.59331365 267.17170427 3.32259488 268.42996006 1.06005859 269.70263672 C-14.31190803 278.26596741 -30.36550963 283.88671318 -47.50244141 287.76904297 C-48.1967627 287.9342041 -48.89108398 288.09936523 -49.60644531 288.26953125 C-87.50989824 297.04020342 -126.92041212 288.62796103 -159.58251953 268.48632812 C-185.38891031 251.83128054 -207.25401558 225.03183197 -213.98681641 194.578125 C-215.01742908 189.33510511 -215.80467563 184.06554172 -216.50244141 178.76904297 C-216.63521484 177.79322266 -216.76798828 176.81740234 -216.90478516 175.81201172 C-219.26736355 154.74299071 -217.70304809 131.03742924 -211.50244141 110.76904297 C-211.2863623 110.06215332 -211.0702832 109.35526367 -210.84765625 108.62695312 C-201.03565231 77.19615767 -183.10653277 50.43571982 -160.50244141 26.76904297 C-159.61814453 25.83189453 -158.73384766 24.89474609 -157.82275391 23.92919922 C-118.95917093 -16.22983652 -47.66855752 -39.05506451 0 0 Z " fill="#FBDD07" transform="translate(1874.50244140625,583.23095703125)"/>
<path d="M0 0 C2.51648615 2.22582818 4.95510834 4.5139625 7.3828125 6.8359375 C8.05957031 7.43792969 8.73632812 8.03992188 9.43359375 8.66015625 C27.02156457 24.90876256 37.2080738 50.97843524 38.60351562 74.56665039 C38.72270073 78.65909301 38.769926 82.74215854 38.7578125 86.8359375 C38.75693634 87.56204224 38.75606018 88.28814697 38.75515747 89.03625488 C38.70758425 101.02470612 37.7595051 112.29152565 34.3828125 123.8359375 C34.13611816 124.69574219 33.88942383 125.55554687 33.63525391 126.44140625 C26.62033515 150.31538389 15.00600859 171.33592895 -1.6171875 189.8359375 C-2.41382813 190.74214844 -3.21046875 191.64835937 -4.03125 192.58203125 C-6.19807291 195.02808392 -8.39527084 197.43991543 -10.6171875 199.8359375 C-11.52984375 200.82980469 -11.52984375 200.82980469 -12.4609375 201.84375 C-18.57347001 208.24118869 -25.53028808 213.57335157 -32.6171875 218.8359375 C-33.1932373 219.26696777 -33.76928711 219.69799805 -34.36279297 220.14208984 C-62.0429682 240.55828271 -94.24033641 247.75472715 -128.10546875 243.20703125 C-143.2098341 240.59414604 -156.45137318 233.18256927 -167.6171875 222.8359375 C-168.39449219 222.13855469 -169.17179688 221.44117188 -169.97265625 220.72265625 C-180.16685757 211.12501748 -186.84396161 199.42934734 -192.6171875 186.8359375 C-193.1328125 185.72089844 -193.6484375 184.60585937 -194.1796875 183.45703125 C-195.77636504 179.43496581 -196.80574032 175.48744979 -197.7421875 171.2734375 C-197.91105469 170.54447266 -198.07992187 169.81550781 -198.25390625 169.06445312 C-207.14086254 130.19276635 -195.21996858 88.3753681 -174.5546875 55.1484375 C-166.99306502 43.42181737 -158.218308 32.93057354 -148.6171875 22.8359375 C-148.03710938 22.20300781 -147.45703125 21.57007813 -146.859375 20.91796875 C-111.00464368 -17.00876966 -43.55465207 -36.01384663 0 0 Z " fill="#050708" transform="translate(1122.6171875,901.1640625)"/>
<path d="M0 0 C7.29427984 5.16732526 11.3738787 11.11772984 14.18359375 19.546875 C14.27851135 21.0291198 14.31846001 22.51523322 14.32403564 24.00050354 C14.32974579 24.91258575 14.33545593 25.82466797 14.34133911 26.76438904 C14.3430159 28.26269005 14.3430159 28.26269005 14.34472656 29.79125977 C14.34969147 30.84543091 14.35465637 31.89960205 14.35977173 32.98571777 C14.37441683 36.48657888 14.38120353 39.98739449 14.38671875 43.48828125 C14.39247356 45.92951966 14.39823125 48.37075806 14.4039917 50.81199646 C14.41451196 55.94424652 14.42034618 61.0764809 14.42382812 66.20874023 C14.42927848 72.74129886 14.45322752 79.27364541 14.48180008 85.80613804 C14.50056727 90.85866364 14.50563976 95.91113994 14.507164 100.96369743 C14.51016549 103.36870404 14.51810786 105.7737103 14.53134918 108.17868233 C14.61602848 124.75874198 14.50546449 141.5981545 8.43359375 157.296875 C8.17682861 157.98749023 7.92006348 158.67810547 7.65551758 159.38964844 C-3.45487592 188.48718425 -24.38636296 212.59071367 -52.95898438 225.51611328 C-68.79512018 232.3644509 -84.50349944 235.67721376 -101.77124023 235.72387695 C-102.84059814 235.73044815 -103.90995605 235.73701935 -105.01171875 235.74378967 C-108.52864668 235.76340182 -112.04553225 235.7751551 -115.5625 235.78515625 C-116.76854448 235.78923178 -117.97458897 235.7933073 -119.21718025 235.79750633 C-125.59473623 235.81831044 -131.97227102 235.83263941 -138.34985352 235.84204102 C-144.92469184 235.85312415 -151.49919352 235.88756268 -158.07391262 235.92721272 C-163.14322022 235.95337809 -168.21244729 235.96173256 -173.28181648 235.96532249 C-175.70543772 235.97018458 -178.12905545 235.98178768 -180.5526104 236.00036049 C-183.94607119 236.02476077 -187.3386557 236.02378539 -190.73217773 236.0168457 C-192.22168694 236.03606079 -192.22168694 236.03606079 -193.74128723 236.05566406 C-203.30014555 235.98465823 -210.14008124 232.81356507 -217.09375 226.34375 C-224.01633813 219.12290978 -225.17742787 212.59302798 -224.99609375 202.921875 C-224.58800668 195.25693518 -222.05796342 190.03326074 -216.81640625 184.546875 C-208.70743439 177.97556149 -201.62780181 176.24738577 -191.36743164 176.30737305 C-190.32751068 176.30535889 -189.28758972 176.30334473 -188.21615601 176.30126953 C-185.96215645 176.29773009 -183.70814696 176.29848363 -181.45414925 176.30304527 C-177.87470777 176.30865543 -174.29558836 176.29944944 -170.71617126 176.2858429 C-160.54017758 176.24880074 -150.36429169 176.23012316 -140.18823242 176.24145508 C-133.95656477 176.24734164 -127.72534819 176.22886932 -121.49377251 176.19556618 C-119.13096821 176.18766372 -116.76811407 176.18881832 -114.40532112 176.19959068 C-94.48168003 176.28646594 -77.02566435 174.03278819 -61.56640625 159.984375 C-56.61345766 154.63931798 -52.73922086 148.20847953 -49.81640625 141.546875 C-49.47317322 140.76516937 -49.12994019 139.98346375 -48.77630615 139.17807007 C-44.91981377 128.72736021 -45.27520679 118.29854794 -45.33055115 107.29168129 C-45.34796772 103.7213053 -45.34022246 100.15172789 -45.32629395 96.5813446 C-45.30108357 89.00729878 -45.30643879 81.43344564 -45.31640625 73.859375 C-45.32796178 65.06519787 -45.32670392 56.27141334 -45.29234314 47.47728539 C-45.2852829 43.97301753 -45.3018791 40.46938205 -45.31945801 36.96516418 C-45.31374787 34.80400254 -45.30692948 32.64284345 -45.29882812 30.48168945 C-45.31579994 29.03740822 -45.31579994 29.03740822 -45.33311462 27.56394958 C-45.25385308 18.67399475 -42.72926691 10.68590823 -36.59375 4.08203125 C-26.48138458 -4.65238547 -11.73186198 -6.85803426 0 0 Z " fill="#8AC342" transform="translate(1997.81640625,272.453125)"/>
<path d="M0 0 C2.43753717 -0.00270196 4.87507328 -0.0065902 7.31260681 -0.01159668 C12.3829083 -0.01744851 17.45292528 -0.00906241 22.52319336 0.00976562 C29.00240732 0.03266254 35.48096222 0.01933636 41.96015263 -0.00452423 C46.97805213 -0.01900563 51.99579621 -0.01436725 57.01370049 -0.00401306 C59.40297971 -0.00135797 61.79227335 -0.00457232 64.18153572 -0.01393127 C67.51861985 -0.02414762 70.85464473 -0.00852847 74.19165039 0.01367188 C75.64984444 0.00152649 75.64984444 0.00152649 77.13749695 -0.01086426 C87.31103416 0.11382918 94.95832611 3.46608836 102.30078125 10.4453125 C108.55946232 17.26599759 109.59173136 24.39524853 109.4921875 33.3984375 C108.79386898 41.28648615 105.21538451 48.34836534 99.21484375 53.53125 C93.56863914 57.31175222 88.55906571 59.6467689 81.71447754 59.66928101 C80.81759216 59.67473434 79.92070679 59.68018768 78.99664307 59.68580627 C78.01999695 59.6868486 77.04335083 59.68789093 76.03710938 59.68896484 C75.00241516 59.69404556 73.96772095 59.69912628 72.90167236 59.70436096 C70.65363918 59.71506182 68.40559537 59.72368312 66.157547 59.73048019 C62.59175088 59.74228464 59.02607503 59.76174416 55.46032715 59.78359985 C45.32124884 59.84514602 35.18218167 59.8991475 25.04296875 59.93261719 C18.83962277 59.95364481 12.63649439 59.9890179 6.43327332 60.03337479 C4.07637608 60.04747623 1.71944032 60.0562439 -0.63749695 60.05942917 C-22.10883487 60.091504 -38.71530689 62.13262282 -54.9140625 77.55859375 C-65.41172598 88.57416852 -70.2662878 102.40299746 -70.16992188 117.421875 C-70.17529465 118.46065796 -70.18066742 119.49944092 -70.186203 120.56970215 C-70.19592839 122.80780182 -70.19894115 125.04593896 -70.19584656 127.28405762 C-70.19134041 130.83310734 -70.20544767 134.38166585 -70.22424316 137.93066406 C-70.26089451 145.46418493 -70.27471559 152.99765313 -70.28515625 160.53125 C-70.29726205 169.26635198 -70.31889755 178.00121241 -70.36515808 186.73620605 C-70.37867024 190.22039434 -70.37456849 193.70427263 -70.36975098 197.18847656 C-70.37909667 199.33919665 -70.38926676 201.48991337 -70.40039062 203.640625 C-70.3942424 204.59884155 -70.38809418 205.55705811 -70.38175964 206.54431152 C-70.47241366 216.57958355 -72.73253755 225.14983789 -79.78515625 232.53125 C-85.80551762 237.75421251 -91.10477974 239.81392901 -99.16015625 239.78125 C-100.42601562 239.78640625 -101.691875 239.7915625 -102.99609375 239.796875 C-111.35708652 239.21074355 -116.90893719 236.34348119 -122.78515625 230.53125 C-129.2944171 221.92924141 -129.93297949 214.39910237 -129.97802734 203.91796875 C-129.98620483 202.86003113 -129.99438232 201.80209351 -130.00280762 200.71209717 C-130.02759053 197.21432035 -130.04416944 193.71658426 -130.05859375 190.21875 C-130.06391743 189.01606476 -130.0692411 187.81337952 -130.0747261 186.57424927 C-130.10144095 180.1946883 -130.12081173 173.81514669 -130.13525391 167.43554688 C-130.1485257 162.19448127 -130.17625584 156.95381122 -130.21728516 151.71289062 C-130.26707066 145.35163848 -130.29143192 138.99074156 -130.29848099 132.62930298 C-130.30512379 130.22478352 -130.3201591 127.82026977 -130.3443718 125.41586304 C-130.68644928 89.35711392 -120.11617527 58.90755076 -95.03125 32.6484375 C-80.97994263 19.28817803 -63.51430959 9.41338125 -44.78515625 4.53125 C-44.15292208 4.36227203 -43.5206879 4.19329407 -42.86929512 4.01919556 C-28.5652745 0.28950028 -14.71827505 -0.05816546 0 0 Z " fill="#F49223" transform="translate(2082.78515625,457.46875)"/>
<path d="M0 0 C9.09021082 7.77668282 16.02348706 16.1764336 18.625 28.125 C19.45262401 44.32733149 17.5870366 56.97293773 6.9375 69.8125 C-4.19574025 81.75580811 -21.02135967 86.68881678 -36.9296875 87.34375 C-50.69275652 87.70597213 -64.79302157 86.48303855 -75.703125 77.12890625 C-78.61935237 74.27037402 -81.10616186 71.52825721 -83.375 68.125 C-87.58737512 87.53000806 -88.83281386 107.71869435 -88.34765625 127.546875 C-88.375 130.125 -88.375 130.125 -89.375 131.125 C-95.22208326 132.0206145 -99.75972787 131.22679905 -104.58984375 127.7890625 C-111.47108546 121.37460086 -113.72779704 111.40198214 -114.66015625 102.359375 C-115.57042883 74.02219395 -103.53681521 44.59230622 -92.375 19.125 C-105.95474435 23.66850325 -116.60715546 29.681991 -125.625 41.125 C-127.63648263 43.55577761 -128.35245743 44.116259 -131.4375 45.3125 C-135.27953119 45.06726397 -136.72301244 43.85275864 -139.375 41.125 C-141.96425872 33.35722383 -141.03477165 24.74952405 -137.6328125 17.3984375 C-128.16189011 0.28018648 -110.8181055 -7.91062528 -92.81640625 -13.3984375 C-62.19597049 -22.08160013 -25.97827381 -19.91931665 0 0 Z M-66.375 13.125 C-66.74467896 14.12128418 -66.74467896 14.12128418 -67.12182617 15.13769531 C-75.7662662 38.40203194 -75.7662662 38.40203194 -79.59765625 47.1484375 C-80.49699792 49.08121806 -80.49699792 49.08121806 -80.375 51.125 C-59.65447065 59.53846067 -36.64509054 64.99496975 -15.05078125 56.17578125 C-8.57413763 53.1469627 -3.92070316 49.45661279 -0.375 43.125 C0.87373289 39.21230362 0.74741313 37.49223938 -0.5625 33.5625 C-6.11053468 23.04036526 -14.38597879 19.86367851 -25.203125 16.23828125 C-34.94883288 13.44545233 -44.53498457 12.84513554 -54.625 13 C-56.33236328 13.01353516 -56.33236328 13.01353516 -58.07421875 13.02734375 C-60.84137881 13.0505972 -63.6080676 13.08327132 -66.375 13.125 Z " fill="#050708" transform="translate(1712.375,1268.875)"/>
<path d="M0 0 C7.72549625 7.93429345 10.85295472 17.37202014 10.88037109 28.25756836 C10.64726124 35.17236781 8.28991095 39.5326002 3.3125 44.375 C-2.00234492 49.15348442 -8.09705745 52.21597424 -14.5625 55.125 C-15.18568115 55.40690186 -15.8088623 55.68880371 -16.45092773 55.97924805 C-27.07516315 60.51238149 -37.38277083 61.88072154 -48.875 61.8125 C-50.68387695 61.8424707 -50.68387695 61.8424707 -52.52929688 61.87304688 C-60.7632736 61.86854989 -67.40695913 60.9808904 -73.84375 55.55859375 C-74.50890625 54.69427734 -74.50890625 54.69427734 -75.1875 53.8125 C-75.6515625 53.23371094 -76.115625 52.65492188 -76.59375 52.05859375 C-79.65721409 47.34304725 -79.18311258 41.76301677 -78.6875 36.375 C-74.99759596 21.4153288 -62.70288444 12.12836469 -50.375 4.125 C-34.42642854 -5.42127754 -16.56416426 -10.01554118 0 0 Z " fill="#070908" transform="translate(1828.6875,629.625)"/>
<path d="M0 0 C7.20623995 6.14041638 11.42321411 14.95469978 12.30859375 24.234375 C12.56880926 31.33116172 12.39713148 36.38764901 7.875 42.05078125 C-5.20793092 55.65157818 -25.61379797 62.76559727 -44.22729492 63.28735352 C-54.1889284 63.40069144 -65.23106164 62.99204452 -73 56 C-77.0818298 50.84400446 -77.64706069 46.5698958 -77.36328125 40.04296875 C-75.94356379 28.15092678 -68.07483369 20.02861233 -59.1875 12.671875 C-56.5127463 10.68100719 -53.79388825 8.81908636 -51 7 C-50.18917969 6.44570313 -49.37835937 5.89140625 -48.54296875 5.3203125 C-42.09436288 1.13236491 -35.40238049 -1.04408646 -28 -3 C-27.3503125 -3.19335938 -26.700625 -3.38671875 -26.03125 -3.5859375 C-17.24421448 -5.37714089 -7.69331583 -4.80654482 0 0 Z " fill="#050808" transform="translate(1887,980)"/>
<path d="M0 0 C1.25997803 -0.02803711 1.25997803 -0.02803711 2.54541016 -0.05664062 C9.13513488 0.01109325 14.54305623 1.5607167 19.47875977 6.08447266 C27.04147607 14.07120736 30.24186101 23.83532253 30.08203125 34.66015625 C29.18805898 42.30624846 24.26071263 47.80169811 18.5234375 52.5859375 C4.03953862 62.58186771 -13.10317736 66.67030054 -30.4375 66.875 C-31.61892578 66.91238281 -32.80035156 66.94976563 -34.01757812 66.98828125 C-41.87175639 67.06660547 -47.69825171 65.98691516 -54.25 61.5 C-58.57334774 57.07120475 -59.42493411 53.5121202 -59.5625 47.4375 C-59.42231085 36.89994911 -55.96705009 30.4138814 -48.72265625 22.875 C-35.10661946 9.79672138 -19.16140403 0.29387583 0 0 Z " fill="#060708" transform="translate(1476.25,624.5)"/>
</svg>
